<mxfile host="app.diagrams.net" modified="2024-04-24T08:38:15.853Z" agent="Mozilla/5.0 (X11; Ubuntu; Linux x86_64; rv:124.0) Gecko/20100101 Firefox/124.0" etag="8sMtWU50LJSFqj0OVCqI" version="24.2.3" type="device">
  <diagram name="Pagina-1" id="VAHhYfCUpugHBYFioyRj">
    <mxGraphModel dx="794" dy="717" grid="1" gridSize="10" guides="1" tooltips="1" connect="1" arrows="1" fold="1" page="1" pageScale="1" pageWidth="827" pageHeight="1169" math="0" shadow="0">
      <root>
        <mxCell id="0" />
        <mxCell id="1" parent="0" />
        <mxCell id="oN7VkWe9YPHkapF9pqnp-4" style="edgeStyle=orthogonalEdgeStyle;rounded=0;orthogonalLoop=1;jettySize=auto;html=1;" edge="1" parent="1" source="oN7VkWe9YPHkapF9pqnp-1" target="oN7VkWe9YPHkapF9pqnp-3">
          <mxGeometry relative="1" as="geometry" />
        </mxCell>
        <mxCell id="oN7VkWe9YPHkapF9pqnp-13" style="edgeStyle=orthogonalEdgeStyle;rounded=0;orthogonalLoop=1;jettySize=auto;html=1;exitX=0.5;exitY=1;exitDx=0;exitDy=0;" edge="1" parent="1" source="oN7VkWe9YPHkapF9pqnp-1" target="oN7VkWe9YPHkapF9pqnp-7">
          <mxGeometry relative="1" as="geometry" />
        </mxCell>
        <mxCell id="oN7VkWe9YPHkapF9pqnp-1" value="dc=it" style="rounded=0;whiteSpace=wrap;html=1;" vertex="1" parent="1">
          <mxGeometry x="280" y="180" width="120" height="60" as="geometry" />
        </mxCell>
        <mxCell id="oN7VkWe9YPHkapF9pqnp-6" style="edgeStyle=orthogonalEdgeStyle;rounded=0;orthogonalLoop=1;jettySize=auto;html=1;" edge="1" parent="1" source="oN7VkWe9YPHkapF9pqnp-3" target="oN7VkWe9YPHkapF9pqnp-5">
          <mxGeometry relative="1" as="geometry" />
        </mxCell>
        <mxCell id="oN7VkWe9YPHkapF9pqnp-17" style="edgeStyle=orthogonalEdgeStyle;rounded=0;orthogonalLoop=1;jettySize=auto;html=1;entryX=0.5;entryY=0;entryDx=0;entryDy=0;" edge="1" parent="1" source="oN7VkWe9YPHkapF9pqnp-3" target="oN7VkWe9YPHkapF9pqnp-16">
          <mxGeometry relative="1" as="geometry" />
        </mxCell>
        <mxCell id="oN7VkWe9YPHkapF9pqnp-3" value="dc=test" style="rounded=0;whiteSpace=wrap;html=1;" vertex="1" parent="1">
          <mxGeometry x="280" y="310" width="120" height="60" as="geometry" />
        </mxCell>
        <mxCell id="oN7VkWe9YPHkapF9pqnp-5" value="dc=ad" style="rounded=0;whiteSpace=wrap;html=1;fillColor=#d5e8d4;strokeColor=#82b366;" vertex="1" parent="1">
          <mxGeometry x="280" y="440" width="120" height="60" as="geometry" />
        </mxCell>
        <mxCell id="oN7VkWe9YPHkapF9pqnp-12" style="edgeStyle=orthogonalEdgeStyle;rounded=0;orthogonalLoop=1;jettySize=auto;html=1;" edge="1" parent="1" source="oN7VkWe9YPHkapF9pqnp-7" target="oN7VkWe9YPHkapF9pqnp-11">
          <mxGeometry relative="1" as="geometry" />
        </mxCell>
        <mxCell id="oN7VkWe9YPHkapF9pqnp-7" value="dc=unibo" style="rounded=0;whiteSpace=wrap;html=1;" vertex="1" parent="1">
          <mxGeometry x="440" y="310" width="120" height="60" as="geometry" />
        </mxCell>
        <mxCell id="oN7VkWe9YPHkapF9pqnp-11" value="dc=dir" style="rounded=0;whiteSpace=wrap;html=1;fillColor=#dae8fc;strokeColor=#6c8ebf;" vertex="1" parent="1">
          <mxGeometry x="440" y="440" width="120" height="60" as="geometry" />
        </mxCell>
        <mxCell id="oN7VkWe9YPHkapF9pqnp-16" value="dc=ad1" style="rounded=0;whiteSpace=wrap;html=1;fillColor=#fff2cc;strokeColor=#d6b656;" vertex="1" parent="1">
          <mxGeometry x="120" y="440" width="120" height="60" as="geometry" />
        </mxCell>
      </root>
    </mxGraphModel>
  </diagram>
</mxfile>
